<svg width="9" height="16" viewBox="0 0 9 16" fill="none" xmlns="http://www.w3.org/2000/svg">
<path d="M0.732754 14.5329C0.732754 14.332 0.811323 14.1391 0.951665 13.9954C0.951691 13.9954 0.951717 13.9954 0.951743 13.9953L6.79599 7.99999L0.951745 2.00583C0.811355 1.86212 0.732756 1.66918 0.732756 1.46828C0.732756 1.26747 0.811275 1.07463 0.951533 0.930942C1.02059 0.860017 1.10316 0.803644 1.19436 0.765152C1.28556 0.72666 1.38355 0.70683 1.48254 0.70683C1.58153 0.70683 1.67951 0.72666 1.77072 0.765152C1.86189 0.803633 1.94443 0.859983 2.01348 0.930877C2.0135 0.930899 2.01352 0.93092 2.01354 0.930942L8.36142 7.4442C8.50636 7.59289 8.58748 7.79233 8.58748 7.99998C8.58748 8.20763 8.50636 8.40706 8.36142 8.55576L2.01354 15.069C2.01352 15.069 2.0135 15.0691 2.01347 15.0691C1.94443 15.14 1.86189 15.1963 1.77071 15.2348C1.67951 15.2733 1.58152 15.2931 1.48253 15.2931C1.38354 15.2931 1.28555 15.2733 1.19435 15.2348C1.1098 15.1991 1.03267 15.1481 0.966841 15.0843C0.961597 15.08 0.956555 15.0754 0.951743 15.0705C0.811352 14.9267 0.732754 14.7338 0.732754 14.5329Z" fill="#8C96A1" stroke="#8C96A1" stroke-width="0.3675" stroke-linejoin="round"/>
</svg>
