<svg width="20" height="20" viewBox="0 0 20 20" fill="none" xmlns="http://www.w3.org/2000/svg">
<path d="M0.769531 7.25H18.2695M4.88053 2.75V0.75M14.1305 2.75V0.75M14.7695 2.75H4.26953C3.34127 2.75 2.45104 3.11875 1.79466 3.77513C1.13828 4.4315 0.769531 5.32174 0.769531 6.25V15.75C0.769531 16.6783 1.13828 17.5685 1.79466 18.2249C2.45104 18.8813 3.34127 19.25 4.26953 19.25H14.7695C15.6978 19.25 16.588 18.8813 17.2444 18.2249C17.9008 17.5685 18.2695 16.6783 18.2695 15.75V6.25C18.2695 5.32174 17.9008 4.4315 17.2444 3.77513C16.588 3.11875 15.6978 2.75 14.7695 2.75Z" stroke="#ABB8C3" stroke-width="1.5" stroke-linecap="round" stroke-linejoin="round"/>
</svg>
