<svg width="24" height="24" viewBox="0 0 24 24" fill="none" xmlns="http://www.w3.org/2000/svg">
<path fill-rule="evenodd" clip-rule="evenodd" d="M2.4 2.39994H21.6V21.5999H2.4V2.39994ZM0.266663 2.39994C0.266663 1.83414 0.491424 1.29152 0.891501 0.89144C1.29158 0.491363 1.8342 0.266602 2.4 0.266602H21.6C22.1658 0.266602 22.7084 0.491363 23.1085 0.89144C23.5086 1.29152 23.7333 1.83414 23.7333 2.39994V21.5999C23.7333 22.1657 23.5086 22.7084 23.1085 23.1084C22.7084 23.5085 22.1658 23.7333 21.6 23.7333H2.4C1.8342 23.7333 1.29158 23.5085 0.891501 23.1084C0.491424 22.7084 0.266663 22.1657 0.266663 21.5999V2.39994ZM18.08 7.75674C18.2401 7.52334 18.301 7.23591 18.2492 6.95765C18.1973 6.6794 18.0371 6.43312 17.8037 6.273C17.5703 6.11288 17.2829 6.05203 17.0046 6.10384C16.7264 6.15565 16.4801 6.31588 16.32 6.54927L10.1653 15.5199L7.08693 11.8079C6.9057 11.5925 6.64666 11.4575 6.36628 11.4322C6.0859 11.407 5.80691 11.4936 5.59014 11.6733C5.37336 11.8529 5.23638 12.1109 5.20906 12.3911C5.18173 12.6713 5.26628 12.9509 5.44426 13.169L9.42506 17.969C9.5305 18.0959 9.66392 18.1965 9.81484 18.2631C9.96576 18.3297 10.1301 18.3604 10.2948 18.3527C10.4596 18.3451 10.6204 18.2993 10.7645 18.219C10.9086 18.1388 11.0321 18.0261 11.1253 17.8901L18.08 7.75674Z" fill="#D7D7D7"/>
</svg>
