<svg width="32" height="32" viewBox="0 0 32 32" fill="none" xmlns="http://www.w3.org/2000/svg">
<path fill-rule="evenodd" clip-rule="evenodd" d="M27.3734 6.04012C27.55 5.85055 27.6462 5.59983 27.6416 5.34076C27.637 5.08169 27.5321 4.83451 27.3489 4.65129C27.1656 4.46807 26.9185 4.36313 26.6594 4.35855C26.4003 4.35398 26.1496 4.45015 25.96 4.62679L4.62669 25.9601C4.52844 26.0517 4.44964 26.1621 4.39498 26.2847C4.34032 26.4074 4.31094 26.5398 4.30857 26.6741C4.3062 26.8084 4.3309 26.9417 4.38119 27.0662C4.43149 27.1908 4.50635 27.3039 4.6013 27.3988C4.69626 27.4938 4.80937 27.5687 4.93389 27.619C5.05841 27.6692 5.19178 27.6939 5.32605 27.6916C5.46032 27.6892 5.59274 27.6598 5.71541 27.6052C5.83807 27.5505 5.94847 27.4717 6.04002 27.3735L9.83602 23.5775C11.6587 24.4361 13.756 25.0001 16 25.0001C19.5787 25.0001 22.7867 23.5641 25.0934 21.7935C26.2494 20.9068 27.204 19.9175 27.8787 18.9455C28.5347 18.0001 29 16.9641 29 16.0001C29 15.0361 28.5334 14.0001 27.8787 13.0548C27.204 12.0828 26.2494 11.0948 25.0947 10.2068C24.7445 9.93745 24.3747 9.67834 23.9854 9.42945L27.3734 6.04012ZM22.5334 10.8815L20.172 13.2428C20.8086 14.2043 21.0933 15.3563 20.9779 16.5037C20.8625 17.651 20.354 18.7232 19.5386 19.5387C18.7231 20.3541 17.6509 20.8626 16.5036 20.978C15.3562 21.0934 14.2042 20.8087 13.2427 20.1721L11.3534 22.0601C12.8274 22.6694 14.4051 22.9885 16 23.0001C19.0494 23.0001 21.84 21.7695 23.876 20.2068C24.892 19.4268 25.6947 18.5828 26.236 17.8055C26.7947 17.0001 27 16.3695 27 16.0001C27 15.6308 26.7947 15.0001 26.236 14.1948C25.6947 13.4175 24.892 12.5735 23.876 11.7935C23.4582 11.4726 23.0116 11.1686 22.5334 10.8815ZM14.7054 18.7081C15.2652 18.9755 15.8941 19.0627 16.5056 18.9578C17.117 18.8529 17.6809 18.561 18.1196 18.1223C18.5582 17.6837 18.8501 17.1198 18.955 16.5083C19.06 15.8969 18.9727 15.2679 18.7054 14.7081L14.7054 18.7081Z" fill="#D7D7D7"/>
<path d="M16 7C17.376 7 18.6987 7.21333 19.9347 7.57467C19.9888 7.59081 20.0377 7.62082 20.0767 7.66172C20.1156 7.70262 20.1432 7.75299 20.1567 7.80783C20.1701 7.86268 20.1691 7.92009 20.1535 7.97438C20.1379 8.02867 20.1085 8.07795 20.068 8.11733L18.9693 9.21733C18.9289 9.25823 18.8785 9.28796 18.8231 9.30361C18.7677 9.31927 18.7092 9.32032 18.6533 9.30667C17.7831 9.10603 16.8931 9.00317 16 9C12.9507 9 10.16 10.2307 8.124 11.7933C7.108 12.5733 6.30533 13.4173 5.764 14.1947C5.20533 15 5 15.6307 5 16C5 16.3693 5.20533 17 5.764 17.8053C6.236 18.4853 6.908 19.2147 7.748 19.908C7.90267 20.0347 7.91733 20.268 7.77467 20.4107L6.83067 21.356C6.77285 21.4146 6.69509 21.4494 6.61283 21.4534C6.53057 21.4573 6.44984 21.4302 6.38667 21.3773C5.52802 20.6697 4.76635 19.852 4.12133 18.9453C3.46667 18 3 16.964 3 16C3 15.036 3.46667 14 4.12133 13.0547C4.796 12.0827 5.75067 11.0947 6.90533 10.2067C9.21333 8.436 12.4213 7 16 7Z" fill="#D7D7D7"/>
<path d="M16 11C16.1582 11 16.3142 11.0071 16.468 11.0213C16.7307 11.0467 16.8253 11.36 16.64 11.5467L15.0227 13.1627C14.5922 13.3119 14.2012 13.5568 13.879 13.879C13.5568 14.2012 13.3119 14.5922 13.1627 15.0227L11.5467 16.64C11.36 16.8267 11.0467 16.7307 11.0213 16.468C10.9562 15.7749 11.0365 15.0759 11.257 14.4157C11.4776 13.7554 11.8336 13.1485 12.3023 12.6338C12.771 12.119 13.3419 11.7079 13.9787 11.4265C14.6154 11.1452 15.3039 10.9999 16 11Z" fill="#D7D7D7"/>
</svg>
