<svg width="28" height="28" viewBox="0 0 28 28" fill="none" xmlns="http://www.w3.org/2000/svg">
<path d="M5.74771 14L14.0966 5.43521C14.0967 5.43517 14.0967 5.43513 14.0968 5.43509C14.2972 5.2298 14.4095 4.95423 14.4095 4.66728C14.4095 4.38027 14.2972 4.10465 14.0966 3.89935C14.0898 3.89231 14.0826 3.88573 14.0751 3.87959C13.981 3.78849 13.8708 3.71555 13.75 3.66457C13.6198 3.60958 13.4798 3.58125 13.3384 3.58125C13.1969 3.58125 13.057 3.60958 12.9267 3.66457C12.7964 3.71955 12.6785 3.80002 12.5799 3.90132C12.5799 3.90133 12.5798 3.9014 12.5798 3.90141L3.51138 13.2061C3.30433 13.4185 3.18844 13.7034 3.18844 14C3.18844 14.2967 3.30433 14.5816 3.51138 14.794L12.5798 24.0987C12.6784 24.2 12.7964 24.2805 12.9267 24.3355C13.057 24.3905 13.1969 24.4188 13.3384 24.4188C13.4798 24.4188 13.6198 24.3905 13.75 24.3355C13.8803 24.2805 13.9983 24.2 14.0969 24.0987M5.74771 14L13.9089 23.9155M5.74771 14L14.0966 22.5631M5.74771 14L14.0966 22.5631M14.0969 24.0987L13.9089 23.9155M14.0969 24.0987C14.0968 24.0988 14.0967 24.0989 14.0966 24.099L13.9089 23.9155M14.0969 24.0987C14.2973 23.8934 14.4095 23.6179 14.4095 23.331C14.4095 23.0441 14.2973 22.7686 14.0968 22.5633M13.9089 23.9155C14.0615 23.7593 14.147 23.5495 14.147 23.331C14.147 23.1126 14.0615 22.9028 13.9089 22.7465L14.0968 22.5633M14.0968 22.5633L14.0966 22.5631M14.0968 22.5633L14.0966 22.5631" fill="#818994" stroke="#818994" stroke-width="0.525" stroke-linejoin="round"/>
<path d="M16.1496 14L24.4985 5.43521C24.4985 5.43517 24.4986 5.43513 24.4986 5.43509C24.6991 5.2298 24.8113 4.95423 24.8113 4.66728C24.8113 4.38027 24.699 4.10465 24.4985 3.89935C24.4916 3.89231 24.4844 3.88573 24.4769 3.87959C24.3829 3.78849 24.2727 3.71555 24.1519 3.66457C24.0216 3.60958 23.8816 3.58125 23.7402 3.58125C23.5988 3.58125 23.4588 3.60958 23.3285 3.66457C23.1983 3.71955 23.0804 3.80002 22.9817 3.90132C22.9817 3.90133 22.9816 3.9014 22.9816 3.90141L13.9132 13.2061C13.7062 13.4185 13.5903 13.7034 13.5903 14C13.5903 14.2967 13.7062 14.5816 13.9132 14.794L22.9816 24.0987C23.0803 24.2 23.1982 24.2805 23.3285 24.3355C23.4588 24.3905 23.5988 24.4188 23.7402 24.4188C23.8816 24.4188 24.0216 24.3905 24.1519 24.3355C24.2822 24.2805 24.4001 24.2 24.4988 24.0987M16.1496 14L24.3107 23.9155M16.1496 14L24.4985 22.5631M16.1496 14L24.4985 22.5631M24.4988 24.0987L24.3107 23.9155M24.4988 24.0987C24.4987 24.0988 24.4986 24.0989 24.4985 24.099L24.3107 23.9155M24.4988 24.0987C24.6992 23.8934 24.8113 23.6179 24.8113 23.331C24.8113 23.0441 24.6991 22.7686 24.4987 22.5633M24.3107 23.9155C24.4634 23.7593 24.5488 23.5495 24.5488 23.331C24.5488 23.1126 24.4634 22.9028 24.3107 22.7465L24.4987 22.5633M24.4987 22.5633L24.4985 22.5631M24.4987 22.5633L24.4985 22.5631" fill="#C9CFD6" stroke="#C9CFD6" stroke-width="0.525" stroke-linejoin="round"/>
</svg>
