<svg width="42" height="49" viewBox="0 0 42 49" fill="none" xmlns="http://www.w3.org/2000/svg">
<path d="M37.1724 3.66211H34.0345V3.91752C34.0345 4.17294 33.7931 4.42835 33.5517 4.42835H27.4368C27.1954 4.42835 26.954 4.17294 26.954 3.91752V3.66211H15.046V3.91752C15.046 4.17294 14.8046 4.42835 14.5632 4.42835H8.44828C8.2069 4.42835 7.96552 4.17294 7.96552 3.91752V3.66211H4.82759C2.17241 3.66211 0 5.96084 0 8.77039V42.9959C0 45.8054 2.17241 48.1042 4.82759 48.1042H37.1724C39.8276 48.1042 42 45.8054 42 42.9959V8.77039C42 5.96084 39.8276 3.66211 37.1724 3.66211Z" fill="url(#paint0_linear_212_1491)"/>
<path d="M15.0458 0.938563C15.0458 0.683149 14.8849 0.427734 14.563 0.427734H8.44809C8.20671 0.427734 7.96533 0.683149 7.96533 0.938563V3.66298H15.0458V0.938563Z" fill="url(#paint1_linear_212_1491)"/>
<path d="M8.44809 4.42835H14.563C14.8044 4.42835 15.0458 4.17294 15.0458 3.91752V3.66211H7.96533V3.91752C7.96533 4.25808 8.20671 4.42835 8.44809 4.42835Z" fill="url(#paint2_linear_212_1491)"/>
<path d="M8.44809 4.42835H14.563C14.8044 4.42835 15.0458 4.17294 15.0458 3.91752V3.66211H7.96533V3.91752C7.96533 4.25808 8.20671 4.42835 8.44809 4.42835Z" fill="url(#paint3_linear_212_1491)"/>
<path d="M34.0346 0.938563C34.0346 0.683149 33.7932 0.427734 33.5518 0.427734H27.4369C27.1955 0.427734 26.9541 0.683149 26.9541 0.938563V3.66298H34.0346V0.938563Z" fill="url(#paint4_linear_212_1491)"/>
<path d="M27.4369 4.42835H33.5518C33.7932 4.42835 34.0346 4.17294 34.0346 3.91752V3.66211H26.9541V3.91752C26.9541 4.25808 27.115 4.42835 27.4369 4.42835Z" fill="url(#paint5_linear_212_1491)"/>
<path d="M27.4369 4.42835H33.5518C33.7932 4.42835 34.0346 4.17294 34.0346 3.91752V3.66211H26.9541V3.91752C26.9541 4.25808 27.115 4.42835 27.4369 4.42835Z" fill="url(#paint6_linear_212_1491)"/>
<path d="M23.8966 19.0728C23.4139 19.0728 22.8507 19.1579 22.2875 19.2431C22.0461 19.3282 21.8047 19.2431 21.6438 18.9876C20.3564 17.37 18.4254 16.4335 16.4944 16.4335C12.7127 16.4335 9.73573 19.6687 9.73573 23.5851C9.73573 23.8405 9.73573 24.0108 9.73573 24.2662C9.73573 24.5216 9.65527 24.8622 9.41389 24.9473C7.72423 25.8838 6.67826 27.7569 6.67826 29.715C6.67826 32.6949 8.93113 35.0787 11.7472 35.0787H30.3334C33.1495 35.0787 35.4024 32.6949 35.4024 29.715C35.4024 26.9906 33.4714 24.6067 30.8967 24.3513C30.6553 24.3513 30.4139 24.0959 30.3334 23.8405C29.3679 21.031 26.7932 19.0728 23.8966 19.0728ZM5.22998 29.8002C5.22998 27.4163 6.35642 25.2879 8.28745 24.0108C8.28745 23.9256 8.28745 23.8405 8.28745 23.6702C8.28745 18.9025 11.9081 15.0713 16.4139 15.0713C18.6668 15.0713 20.8392 16.0929 22.3679 17.7957C22.8507 17.7106 23.4139 17.6254 23.8966 17.6254C27.276 17.6254 30.253 19.7539 31.4599 23.0743C34.5173 23.6702 36.7702 26.4798 36.7702 29.8002C36.7702 33.5462 33.8737 36.6112 30.3334 36.6112H11.6668C8.12653 36.6963 5.22998 33.6314 5.22998 29.8002Z" fill="white"/>
<path d="M23.8966 19.0728C23.4139 19.0728 22.8507 19.1579 22.2875 19.2431C22.0461 19.3282 21.8047 19.2431 21.6438 18.9876C20.3564 17.37 18.4254 16.4335 16.4944 16.4335C12.7127 16.4335 9.73573 19.6687 9.73573 23.5851C9.73573 23.8405 9.73573 24.0108 9.73573 24.2662C9.73573 24.5216 9.65527 24.8622 9.41389 24.9473C7.72423 25.8838 6.67826 27.7569 6.67826 29.715C6.67826 32.6949 8.93113 35.0787 11.7472 35.0787H30.3334C33.1495 35.0787 35.4024 32.6949 35.4024 29.715C35.4024 26.9906 33.4714 24.6067 30.8967 24.3513C30.6553 24.3513 30.4139 24.0959 30.3334 23.8405C29.3679 21.031 26.7932 19.0728 23.8966 19.0728ZM5.22998 29.8002C5.22998 27.4163 6.35642 25.2879 8.28745 24.0108C8.28745 23.9256 8.28745 23.8405 8.28745 23.6702C8.28745 18.9025 11.9081 15.0713 16.4139 15.0713C18.6668 15.0713 20.8392 16.0929 22.3679 17.7957C22.8507 17.7106 23.4139 17.6254 23.8966 17.6254C27.276 17.6254 30.253 19.7539 31.4599 23.0743C34.5173 23.6702 36.7702 26.4798 36.7702 29.8002C36.7702 33.5462 33.8737 36.6112 30.3334 36.6112H11.6668C8.12653 36.6963 5.22998 33.6314 5.22998 29.8002Z" fill="white"/>
<defs>
<linearGradient id="paint0_linear_212_1491" x1="21" y1="3.69114" x2="21" y2="48.0869" gradientUnits="userSpaceOnUse">
<stop offset="0.00515464" stop-color="#FED208"/>
<stop offset="0.4061" stop-color="#FED00B"/>
<stop offset="0.6457" stop-color="#FDC913"/>
<stop offset="0.8422" stop-color="#FCBE21"/>
<stop offset="1" stop-color="#FBAF33"/>
</linearGradient>
<linearGradient id="paint1_linear_212_1491" x1="7.9947" y1="2.06851" x2="15.0767" y2="2.06851" gradientUnits="userSpaceOnUse">
<stop offset="0.00515464" stop-color="#FED208"/>
<stop offset="0.8626" stop-color="#FED208"/>
<stop offset="1" stop-color="#FED208"/>
</linearGradient>
<linearGradient id="paint2_linear_212_1491" x1="11.5357" y1="3.69114" x2="11.5357" y2="48.0864" gradientUnits="userSpaceOnUse">
<stop offset="0.00515464" stop-color="#FED208"/>
<stop offset="0.4061" stop-color="#FED00B"/>
<stop offset="0.6457" stop-color="#FDC913"/>
<stop offset="0.8422" stop-color="#FCBE21"/>
<stop offset="1" stop-color="#FBAF33"/>
</linearGradient>
<linearGradient id="paint3_linear_212_1491" x1="7.9947" y1="4.07741" x2="15.0767" y2="4.07741" gradientUnits="userSpaceOnUse">
<stop offset="0.00515464" stop-color="#FED208"/>
<stop offset="0.8626" stop-color="#FED208"/>
<stop offset="1" stop-color="#FED208"/>
</linearGradient>
<linearGradient id="paint4_linear_212_1491" x1="26.9232" y1="2.06851" x2="34.0052" y2="2.06851" gradientUnits="userSpaceOnUse">
<stop offset="0.00515464" stop-color="#FED208"/>
<stop offset="0.8626" stop-color="#FED208"/>
<stop offset="1" stop-color="#FED208"/>
</linearGradient>
<linearGradient id="paint5_linear_212_1491" x1="30.4642" y1="3.69114" x2="30.4642" y2="48.0864" gradientUnits="userSpaceOnUse">
<stop offset="0.00515464" stop-color="#FED208"/>
<stop offset="0.4061" stop-color="#FED00B"/>
<stop offset="0.6457" stop-color="#FDC913"/>
<stop offset="0.8422" stop-color="#FCBE21"/>
<stop offset="1" stop-color="#FBAF33"/>
</linearGradient>
<linearGradient id="paint6_linear_212_1491" x1="26.9232" y1="4.07741" x2="34.0052" y2="4.07741" gradientUnits="userSpaceOnUse">
<stop offset="0.00515464" stop-color="#FED208"/>
<stop offset="0.8626" stop-color="#FED208"/>
<stop offset="1" stop-color="#FED208"/>
</linearGradient>
</defs>
</svg>
