<svg width="20" height="13" viewBox="0 0 20 13" fill="none" xmlns="http://www.w3.org/2000/svg">
<path d="M14.367 4.08142C14.9633 4.45841 15.5104 4.90796 15.9959 5.41975C16.7888 6.25773 17.4128 7.24058 17.8339 8.31458C18.1483 9.11483 18.3509 9.95633 18.4343 10.8143C18.4838 11.3185 18.0685 11.7292 17.5625 11.7292H2.43753C1.93153 11.7292 1.51628 11.3176 1.56578 10.8143C1.6492 9.95633 1.85178 9.11483 2.1662 8.31458C2.58739 7.24091 3.21139 6.25838 4.00411 5.42067C4.48957 4.90856 5.03672 4.4587 5.63303 4.08142M14.367 4.08142C14.0089 3.85426 13.6338 3.65506 13.245 3.48558C12.2216 3.03852 11.1169 2.80759 10 2.80725C8.8832 2.80759 7.77847 3.03852 6.75503 3.48558C6.36627 3.65506 5.99116 3.85426 5.63303 4.08142M14.367 4.08142L15.9492 1.1875M5.63303 4.08142L4.05086 1.1875" stroke="#848484" stroke-width="1.5" stroke-linecap="round" stroke-linejoin="round"/>
<path d="M7.02083 9.03678C7.65366 9.03678 8.16667 8.52378 8.16667 7.89095C8.16667 7.25812 7.65366 6.74512 7.02083 6.74512C6.38801 6.74512 5.875 7.25812 5.875 7.89095C5.875 8.52378 6.38801 9.03678 7.02083 9.03678Z" fill="#848484"/>
<path d="M12.9792 9.03678C13.612 9.03678 14.125 8.52378 14.125 7.89095C14.125 7.25812 13.612 6.74512 12.9792 6.74512C12.3464 6.74512 11.8334 7.25812 11.8334 7.89095C11.8334 8.52378 12.3464 9.03678 12.9792 9.03678Z" fill="#848484"/>
</svg>
