<svg width="147" height="25" viewBox="0 0 147 25" fill="none" xmlns="http://www.w3.org/2000/svg">
<path d="M15.212 11.8821C17.956 12.8341 19.188 14.7101 19.188 17.2021C19.188 21.8781 15.94 23.9221 11.236 23.9221H0.96V0.906101H10.144C14.82 0.906101 18.096 2.9501 18.096 7.5421C18.096 9.3901 17.284 10.9861 15.212 11.8821ZM10.116 4.7701H5.356V10.5381H10.116C12.356 10.5381 13.756 9.5581 13.756 7.6261C13.756 5.6101 12.356 4.7701 10.116 4.7701ZM5.356 20.0581H11.208C13.448 20.0581 14.848 19.1341 14.848 17.1181C14.848 15.1021 13.448 14.1221 11.208 14.1221H5.356V20.0581ZM26.6568 23.9221H22.2608V0.906101H26.6568V23.9221ZM46.4773 23.9221H29.7333V20.5061L40.4853 4.8821H30.1533V0.906101H45.9453V4.3221L35.1653 19.9461H46.4773V23.9221ZM48.5138 18.2941L50.9218 17.1741C52.0698 20.0301 54.5338 21.6261 57.7538 21.6261C60.9458 21.6261 63.1018 20.3101 63.1018 17.9861C63.1018 15.7181 61.5058 14.7381 59.2098 14.0941L55.8218 13.1421C52.8258 12.2741 49.7458 10.5941 49.7458 6.8141C49.7458 3.0061 53.0778 0.654101 57.3618 0.654101C61.5898 0.654101 64.5298 3.0341 65.7338 6.1141L63.3258 7.2621C62.2898 4.8261 60.2738 3.2021 57.3618 3.2021C54.4498 3.2021 52.5458 4.5741 52.5458 6.8141C52.5458 9.0821 54.3098 10.0061 56.4378 10.6221L59.7698 11.5741C62.7938 12.4141 65.8738 14.1221 65.8738 17.9861C65.8738 21.8501 62.3178 24.1741 57.7538 24.1741C53.2458 24.1741 49.8858 22.0181 48.5138 18.2941ZM67.8699 1.0741H85.8739V3.6501H78.2859V23.7541H75.4579V3.6501H67.8699V1.0741ZM96.8491 24.1741C91.6131 24.1741 87.2731 20.6461 87.2731 14.4581V10.3421C87.2731 4.2101 91.6131 0.654101 96.8491 0.654101C102.057 0.654101 106.425 4.2101 106.425 10.3421V14.4581C106.425 20.6461 102.057 24.1741 96.8491 24.1741ZM96.8491 21.5701C100.545 21.5701 103.597 19.1061 103.597 14.2621V10.5661C103.597 5.7501 100.545 3.2581 96.8491 3.2581C93.1251 3.2581 90.0731 5.7221 90.0731 10.5661V14.2621C90.0731 19.1061 93.1251 21.5701 96.8491 21.5701ZM121.911 13.9261L127.259 23.7541H124.095L119.195 14.2901H118.747H112.867V23.7541H110.067V1.0741H118.747C123.787 1.0741 126.699 3.4261 126.699 7.6821C126.699 10.9861 124.991 13.1141 121.911 13.9261ZM118.523 3.5661H112.867V11.7981H118.523C122.051 11.7981 123.899 10.4261 123.899 7.6821C123.899 4.9381 122.051 3.5661 118.523 3.5661ZM143.155 1.0741H146.319L138.115 14.9341V23.7541H135.315V14.9341L127.111 1.0741H130.275L136.715 12.2461L143.155 1.0741Z" fill="black"/>
</svg>
