<svg width="30" height="30" viewBox="0 0 30 30" fill="none" xmlns="http://www.w3.org/2000/svg">
<path d="M15.0001 27.8069C21.9938 27.8069 27.8069 22.0062 27.8069 15.0001C27.8069 8.00639 21.981 2.19336 14.9872 2.19336C7.98171 2.19336 2.19385 8.00639 2.19385 15.0001C2.19385 22.0062 7.99403 27.8069 15.0001 27.8069ZM15.0006 25.6726C9.07349 25.6726 4.33938 20.9262 4.33938 15.0001C4.33938 9.08586 9.06063 4.32765 14.9872 4.32765C20.901 4.32765 25.6592 9.0864 25.6721 15.0001C25.6844 20.9268 20.9133 25.6726 14.9996 25.6726M14.9872 17.2726C15.5894 17.2726 15.9285 16.9335 15.9408 16.281L16.1294 9.65157C16.1422 9.01086 15.6397 8.53407 14.9744 8.53407C14.2962 8.53407 13.8194 8.99854 13.8317 9.63872L13.9951 16.281C14.0074 16.9212 14.3594 17.2726 14.9872 17.2726ZM14.9872 21.3532C15.7024 21.3532 16.3426 20.7757 16.3426 20.0476C16.3426 19.3068 15.7153 18.7416 14.9872 18.7416C14.2463 18.7416 13.6308 19.3191 13.6308 20.0476C13.6308 20.7634 14.2587 21.3532 14.9872 21.3532Z" fill="white"/>
</svg>
