<svg width="30" height="30" viewBox="0 0 30 30" fill="none" xmlns="http://www.w3.org/2000/svg">
<path d="M15 2.5C8.09648 2.5 2.5 8.09648 2.5 15C2.5 21.9039 8.09648 27.5 15 27.5C21.9039 27.5 27.5 21.9039 27.5 15C27.5 8.09648 21.9039 2.5 15 2.5ZM15 25.9621C8.96914 25.9621 4.0625 21.0309 4.0625 14.9999C4.0625 8.96909 8.96914 4.06245 15 4.06245C21.0309 4.06245 25.9375 8.96912 25.9375 14.9999C25.9375 21.0308 21.0309 25.9621 15 25.9621ZM20.4688 14.2188H15.7812V9.53125C15.7812 9.1 15.4312 8.75 15 8.75C14.5687 8.75 14.2188 9.1 14.2188 9.53125V14.2188H9.53125C9.1 14.2188 8.75 14.5687 8.75 15C8.75 15.4312 9.1 15.7812 9.53125 15.7812H14.2188V20.4688C14.2188 20.9 14.5687 21.25 15 21.25C15.4312 21.25 15.7812 20.9 15.7812 20.4688V15.7812H20.4688C20.9 15.7812 21.25 15.4312 21.25 15C21.25 14.5687 20.9 14.2188 20.4688 14.2188Z" fill="white" stroke="white" stroke-width="0.5"/>
</svg>
