<svg width="22" height="17" viewBox="0 0 22 17" fill="none" xmlns="http://www.w3.org/2000/svg">
<path d="M11 1.375V15.625C7.5 15.625 4.8995 11.9992 4.8995 11.9992H2C1.73478 11.9992 1.48043 11.9158 1.29289 11.7673C1.10536 11.6188 1 11.4175 1 11.2075V5.73313C1 5.52316 1.10536 5.3218 1.29289 5.17333C1.48043 5.02487 1.73478 4.94146 2 4.94146H4.8995C4.8995 4.94146 7.5 1.375 11 1.375Z" stroke="#BDBDBD" stroke-width="2" stroke-linejoin="round"/>
<path d="M15 4.9375C15.3124 5.15883 15.5946 5.40546 15.842 5.67335C16.5977 6.49417 17.0033 7.48429 17 8.5C17 9.55054 16.577 10.5215 15.861 11.3065C15.609 11.5822 15.3204 11.8356 15 12.0625" stroke="#BDBDBD" stroke-width="2" stroke-linecap="round" stroke-linejoin="round"/>
<path d="M16.118 15.3035C19.042 13.9221 21 11.3923 21 8.50076C21 5.65392 19.102 3.15859 16.2535 1.76367" stroke="#BDBDBD" stroke-width="2" stroke-linecap="round"/>
</svg>
