<svg width="24" height="24" viewBox="0 0 24 24" fill="none" xmlns="http://www.w3.org/2000/svg">
<path d="M12 3V21C8.5 21 5.8995 16.42 5.8995 16.42H3C2.73478 16.42 2.48043 16.3146 2.29289 16.1271C2.10536 15.9396 2 15.6852 2 15.42V8.505C2 8.23978 2.10536 7.98543 2.29289 7.79789C2.48043 7.61036 2.73478 7.505 3 7.505H5.8995C5.8995 7.505 8.5 3 12 3Z" stroke="#BDBDBD" stroke-width="2" stroke-linejoin="round"/>
<path d="M16 7.5C16.3124 7.77957 16.5946 8.0911 16.842 8.4295C17.5977 9.46632 18.0033 10.717 18 12C18 13.327 17.577 14.5535 16.861 15.545C16.609 15.8933 16.3204 16.2134 16 16.5" stroke="#BDBDBD" stroke-width="2" stroke-linecap="round" stroke-linejoin="round"/>
<path d="M17.1179 20.5932C20.0419 18.8482 21.9999 15.6527 21.9999 12.0002C21.9999 8.40423 20.1019 5.25223 17.2534 3.49023" stroke="#BDBDBD" stroke-width="2" stroke-linecap="round"/>
</svg>
